# xmcd
#
# Track frame offsets:
#	150
#	18098
#	31887
#	55265
#	71635
#	85157
#	102648
#	115730
#	136758
#	153569
#	171800
#	214502
#	237923
#	254543
#	267947
#	288849
#
# Disc length: 4191 seconds
#
# Revision: 1
# Processed by: cddbd v1.5.1PL0 Copyright (c) Steve Scherf et al.
# Submitted via: audiograbber 1.80
#
DISCID=d9105d10
DTITLE=Synnøve Aanensen - A Beautiful Life
DYEAR=1900
DGENRE=
TTITLE0=A Beautiful Life
TTITLE1=I Saw The Light
TTITLE2=All My Tears
TTITLE3=Thank You Lord For Your Blessings
TTITLE4=Sweet Bye And Bye
TTITLE5=Jesus In Your Eyes
TTITLE6=Heaven's Just A Prayer Away
TTITLE7=God On The Mountain
TTITLE8=Denomenation Blues
TTITLE9=I Can Only Imagine
TTITLE10=Wayfaring Stranger
TTITLE11=1
TTITLE12=2
TTITLE13=3
TTITLE14=4
TTITLE15=5
EXTD=
EXTT0=
EXTT1=
EXTT2=
EXTT3=
EXTT4=
EXTT5=
EXTT6=
EXTT7=
EXTT8=
EXTT9=
EXTT10=
EXTT11=
EXTT12=
EXTT13=
EXTT14=
EXTT15=
PLAYORDER=
